{
	"asset":{
		"generator":"Khronos glTF Blender I/O v4.3.47",
		"version":"2.0"
	},
	"extensionsUsed":[
		"KHR_materials_specular",
		"KHR_materials_ior"
	],
	"scene":0,
	"scenes":[
		{
			"name":"Scene",
			"nodes":[
				0,
				1
			]
		}
	],
	"nodes":[
		{
			"mesh":0,
			"name":"1,2-dichloropropane (4).sdf",
			"rotation":[
				-0.22204706072807312,
				-0.9496816396713257,
				-0.20210090279579163,
				0.08919262140989304
			],
			"translation":[
				4.202872276306152,
				3.6415138244628906,
				-3.357175588607788
			]
		},
		{
			"mesh":1,
			"name":"1,2-dichloropropane (3).sdf",
			"rotation":[
				0.187942236661911,
				-0.37610483169555664,
				-0.8974652290344238,
				0.13333812355995178
			],
			"translation":[
				4.424076080322266,
				3.237534999847412,
				2.82062029838562
			]
		}
	],
	"materials":[
		{
			"doubleSided":true,
			"extensions":{
				"KHR_materials_specular":{
					"specularFactor":0.5
				},
				"KHR_materials_ior":{
					"ior":0.0010000000474974513
				}
			},
			"name":"k000000",
			"pbrMetallicRoughness":{
				"baseColorFactor":[
					0,
					0,
					0,
					1
				],
				"metallicFactor":0,
				"roughnessFactor":0.5962674021720886
			}
		},
		{
			"doubleSided":true,
			"extensions":{
				"KHR_materials_specular":{
					"specularFactor":0.5
				},
				"KHR_materials_ior":{
					"ior":0.0010000000474974513
				}
			},
			"name":"k1ff01f",
			"pbrMetallicRoughness":{
				"baseColorFactor":[
					0.125,
					0.9409999847412109,
					0.125,
					1
				],
				"metallicFactor":0,
				"roughnessFactor":0.5962674021720886
			}
		},
		{
			"doubleSided":true,
			"extensions":{
				"KHR_materials_specular":{
					"specularFactor":0.5
				},
				"KHR_materials_ior":{
					"ior":0.0010000000474974513
				}
			},
			"name":"kffffff",
			"pbrMetallicRoughness":{
				"metallicFactor":0,
				"roughnessFactor":0.5962674021720886
			}
		},
		{
			"doubleSided":true,
			"extensions":{
				"KHR_materials_specular":{
					"specularFactor":0.5
				},
				"KHR_materials_ior":{
					"ior":0.0010000000474974513
				}
			},
			"name":"k808080",
			"pbrMetallicRoughness":{
				"baseColorFactor":[
					0.5040000081062317,
					0.5040000081062317,
					0.5040000081062317,
					1
				],
				"metallicFactor":0,
				"roughnessFactor":0.5962674021720886
			}
		},
		{
			"doubleSided":true,
			"extensions":{
				"KHR_materials_specular":{
					"specularFactor":0.5
				},
				"KHR_materials_ior":{
					"ior":0.0010000000474974513
				}
			},
			"name":"k000000.001",
			"pbrMetallicRoughness":{
				"baseColorFactor":[
					0,
					0,
					0,
					1
				],
				"metallicFactor":0,
				"roughnessFactor":0.5962674021720886
			}
		},
		{
			"doubleSided":true,
			"extensions":{
				"KHR_materials_specular":{
					"specularFactor":0.5
				},
				"KHR_materials_ior":{
					"ior":0.0010000000474974513
				}
			},
			"name":"k1ff01f.001",
			"pbrMetallicRoughness":{
				"baseColorFactor":[
					0.125,
					0.9409999847412109,
					0.125,
					1
				],
				"metallicFactor":0,
				"roughnessFactor":0.5962674021720886
			}
		},
		{
			"doubleSided":true,
			"extensions":{
				"KHR_materials_specular":{
					"specularFactor":0.5
				},
				"KHR_materials_ior":{
					"ior":0.0010000000474974513
				}
			},
			"name":"kffffff.001",
			"pbrMetallicRoughness":{
				"metallicFactor":0,
				"roughnessFactor":0.5962674021720886
			}
		},
		{
			"doubleSided":true,
			"extensions":{
				"KHR_materials_specular":{
					"specularFactor":0.5
				},
				"KHR_materials_ior":{
					"ior":0.0010000000474974513
				}
			},
			"name":"k808080.001",
			"pbrMetallicRoughness":{
				"baseColorFactor":[
					0.5040000081062317,
					0.5040000081062317,
					0.5040000081062317,
					1
				],
				"metallicFactor":0,
				"roughnessFactor":0.5962674021720886
			}
		}
	],
	"meshes":[
		{
			"name":"1,2-dichloropropane (4).sdf",
			"primitives":[
				{
					"attributes":{
						"POSITION":0,
						"NORMAL":1
					},
					"indices":2,
					"material":0
				},
				{
					"attributes":{
						"POSITION":3,
						"NORMAL":4
					},
					"indices":5,
					"material":1
				},
				{
					"attributes":{
						"POSITION":6,
						"NORMAL":7
					},
					"indices":8,
					"material":2
				},
				{
					"attributes":{
						"POSITION":9,
						"NORMAL":10
					},
					"indices":11,
					"material":3
				}
			]
		},
		{
			"name":"1,2-dichloropropane (3).sdf",
			"primitives":[
				{
					"attributes":{
						"POSITION":12,
						"NORMAL":13
					},
					"indices":2,
					"material":4
				},
				{
					"attributes":{
						"POSITION":14,
						"NORMAL":15
					},
					"indices":5,
					"material":5
				},
				{
					"attributes":{
						"POSITION":16,
						"NORMAL":17
					},
					"indices":8,
					"material":6
				},
				{
					"attributes":{
						"POSITION":18,
						"NORMAL":19
					},
					"indices":11,
					"material":7
				}
			]
		}
	],
	"accessors":[
		{
			"bufferView":0,
			"componentType":5126,
			"count":1926,
			"max":[
				1.1040489673614502,
				1.0511096715927124,
				0.7832474708557129
			],
			"min":[
				-0.9660513401031494,
				-1.2447903156280518,
				-0.8809528350830078
			],
			"type":"VEC3"
		},
		{
			"bufferView":1,
			"componentType":5126,
			"count":1926,
			"type":"VEC3"
		},
		{
			"bufferView":2,
			"componentType":5123,
			"count":11520,
			"type":"SCALAR"
		},
		{
			"bufferView":3,
			"componentType":5126,
			"count":1284,
			"max":[
				0.10004901885986328,
				1.6734095811843872,
				2.305647373199463
			],
			"min":[
				-0.9521510601043701,
				-0.6446903347969055,
				-2.6337528228759766
			],
			"type":"VEC3"
		},
		{
			"bufferView":4,
			"componentType":5126,
			"count":1284,
			"type":"VEC3"
		},
		{
			"bufferView":5,
			"componentType":5123,
			"count":7680,
			"type":"SCALAR"
		},
		{
			"bufferView":6,
			"componentType":5126,
			"count":2568,
			"max":[
				1.8353489637374878,
				1.6420096158981323,
				1.3986473083496094
			],
			"min":[
				-1.7921512126922607,
				-1.7330902814865112,
				-0.5945529937744141
			],
			"type":"VEC3"
		},
		{
			"bufferView":7,
			"componentType":5126,
			"count":2568,
			"type":"VEC3"
		},
		{
			"bufferView":8,
			"componentType":5123,
			"count":15360,
			"type":"SCALAR"
		},
		{
			"bufferView":9,
			"componentType":5126,
			"count":12204,
			"max":[
				1.6613489389419556,
				1.4680095911026,
				1.9691472053527832
			],
			"min":[
				-1.6181509494781494,
				-1.559090256690979,
				-2.297252893447876
			],
			"type":"VEC3"
		},
		{
			"bufferView":10,
			"componentType":5126,
			"count":12204,
			"type":"VEC3"
		},
		{
			"bufferView":11,
			"componentType":5123,
			"count":71064,
			"type":"SCALAR"
		},
		{
			"bufferView":12,
			"componentType":5126,
			"count":1926,
			"max":[
				1.4722330570220947,
				0.7420011758804321,
				1.1284390687942505
			],
			"min":[
				-0.7432668209075928,
				-0.745498776435852,
				-1.1038609743118286
			],
			"type":"VEC3"
		},
		{
			"bufferView":13,
			"componentType":5126,
			"count":1926,
			"type":"VEC3"
		},
		{
			"bufferView":14,
			"componentType":5126,
			"count":1284,
			"max":[
				-0.129166841506958,
				0.9594012498855591,
				2.5112390518188477
			],
			"min":[
				-1.184966802597046,
				-1.357198715209961,
				-2.428560972213745
			],
			"type":"VEC3"
		},
		{
			"bufferView":15,
			"componentType":5126,
			"count":1284,
			"type":"VEC3"
		},
		{
			"bufferView":16,
			"componentType":5126,
			"count":2568,
			"max":[
				2.1117331981658936,
				1.5788015127182007,
				1.1470392942428589
			],
			"min":[
				-1.1835670471191406,
				-1.6637986898422241,
				-1.0867609977722168
			],
			"type":"VEC3"
		},
		{
			"bufferView":17,
			"componentType":5126,
			"count":2568,
			"type":"VEC3"
		},
		{
			"bufferView":18,
			"componentType":5126,
			"count":12204,
			"max":[
				1.9377331733703613,
				1.4048014879226685,
				2.174738883972168
			],
			"min":[
				-1.0095670223236084,
				-1.4897987842559814,
				-2.0920610427856445
			],
			"type":"VEC3"
		},
		{
			"bufferView":19,
			"componentType":5126,
			"count":12204,
			"type":"VEC3"
		}
	],
	"bufferViews":[
		{
			"buffer":0,
			"byteLength":23112,
			"byteOffset":0,
			"target":34962
		},
		{
			"buffer":0,
			"byteLength":23112,
			"byteOffset":23112,
			"target":34962
		},
		{
			"buffer":0,
			"byteLength":23040,
			"byteOffset":46224,
			"target":34963
		},
		{
			"buffer":0,
			"byteLength":15408,
			"byteOffset":69264,
			"target":34962
		},
		{
			"buffer":0,
			"byteLength":15408,
			"byteOffset":84672,
			"target":34962
		},
		{
			"buffer":0,
			"byteLength":15360,
			"byteOffset":100080,
			"target":34963
		},
		{
			"buffer":0,
			"byteLength":30816,
			"byteOffset":115440,
			"target":34962
		},
		{
			"buffer":0,
			"byteLength":30816,
			"byteOffset":146256,
			"target":34962
		},
		{
			"buffer":0,
			"byteLength":30720,
			"byteOffset":177072,
			"target":34963
		},
		{
			"buffer":0,
			"byteLength":146448,
			"byteOffset":207792,
			"target":34962
		},
		{
			"buffer":0,
			"byteLength":146448,
			"byteOffset":354240,
			"target":34962
		},
		{
			"buffer":0,
			"byteLength":142128,
			"byteOffset":500688,
			"target":34963
		},
		{
			"buffer":0,
			"byteLength":23112,
			"byteOffset":642816,
			"target":34962
		},
		{
			"buffer":0,
			"byteLength":23112,
			"byteOffset":665928,
			"target":34962
		},
		{
			"buffer":0,
			"byteLength":15408,
			"byteOffset":689040,
			"target":34962
		},
		{
			"buffer":0,
			"byteLength":15408,
			"byteOffset":704448,
			"target":34962
		},
		{
			"buffer":0,
			"byteLength":30816,
			"byteOffset":719856,
			"target":34962
		},
		{
			"buffer":0,
			"byteLength":30816,
			"byteOffset":750672,
			"target":34962
		},
		{
			"buffer":0,
			"byteLength":146448,
			"byteOffset":781488,
			"target":34962
		},
		{
			"buffer":0,
			"byteLength":146448,
			"byteOffset":927936,
			"target":34962
		}
	],
	"buffers":[
		{
			"byteLength":1074384,
			"uri":"data:application/octet-stream;base64,"
		}
	]
}
